<mxfile host="app.diagrams.net" agent="Mozilla/5.0 (Windows NT 10.0; Win64; x64) AppleWebKit/537.36 (KHTML, like Gecko) Chrome/126.0.0.0 YaBrowser/24.7.0.0 Safari/537.36" version="24.7.7">
  <diagram name="Страница — 1" id="Phtm61Pl4JO7pt1aCnUe">
    <mxGraphModel dx="867" dy="507" grid="1" gridSize="10" guides="1" tooltips="1" connect="1" arrows="1" fold="1" page="1" pageScale="1" pageWidth="827" pageHeight="1169" math="0" shadow="0">
      <root>
        <mxCell id="0" />
        <mxCell id="1" parent="0" />
        <mxCell id="8CoznZ1QwLFMuTIEQVtO-1" value="&lt;font style=&quot;font-size: 15px;&quot;&gt;Animal&lt;/font&gt;" style="swimlane;fontStyle=0;childLayout=stackLayout;horizontal=1;startSize=30;horizontalStack=0;resizeParent=1;resizeParentMax=0;resizeLast=0;collapsible=1;marginBottom=0;whiteSpace=wrap;html=1;labelBackgroundColor=none;fillColor=#B2C9AB;strokeColor=#788AA3;fontColor=#46495D;" parent="1" vertex="1">
          <mxGeometry x="326" y="40" width="176" height="150" as="geometry">
            <mxRectangle x="344" y="40" width="80" height="30" as="alternateBounds" />
          </mxGeometry>
        </mxCell>
        <mxCell id="8CoznZ1QwLFMuTIEQVtO-2" value="id: int" style="text;strokeColor=none;fillColor=none;align=left;verticalAlign=middle;spacingLeft=4;spacingRight=4;overflow=hidden;points=[[0,0.5],[1,0.5]];portConstraint=eastwest;rotatable=0;whiteSpace=wrap;html=1;labelBackgroundColor=none;fontColor=#46495D;" parent="8CoznZ1QwLFMuTIEQVtO-1" vertex="1">
          <mxGeometry y="30" width="176" height="30" as="geometry" />
        </mxCell>
        <mxCell id="8CoznZ1QwLFMuTIEQVtO-3" value="name: String" style="text;strokeColor=none;fillColor=none;align=left;verticalAlign=middle;spacingLeft=4;spacingRight=4;overflow=hidden;points=[[0,0.5],[1,0.5]];portConstraint=eastwest;rotatable=0;whiteSpace=wrap;html=1;labelBackgroundColor=none;fontColor=#46495D;" parent="8CoznZ1QwLFMuTIEQVtO-1" vertex="1">
          <mxGeometry y="60" width="176" height="30" as="geometry" />
        </mxCell>
        <mxCell id="8CoznZ1QwLFMuTIEQVtO-7" value="birthday: String" style="text;strokeColor=none;fillColor=none;align=left;verticalAlign=middle;spacingLeft=4;spacingRight=4;overflow=hidden;points=[[0,0.5],[1,0.5]];portConstraint=eastwest;rotatable=0;whiteSpace=wrap;html=1;labelBackgroundColor=none;fontColor=#46495D;" parent="8CoznZ1QwLFMuTIEQVtO-1" vertex="1">
          <mxGeometry y="90" width="176" height="30" as="geometry" />
        </mxCell>
        <mxCell id="8CoznZ1QwLFMuTIEQVtO-4" value="commands: ArrayList&amp;lt;String&amp;gt;" style="text;strokeColor=none;fillColor=none;align=left;verticalAlign=middle;spacingLeft=4;spacingRight=4;overflow=hidden;points=[[0,0.5],[1,0.5]];portConstraint=eastwest;rotatable=0;whiteSpace=wrap;html=1;labelBackgroundColor=none;fontColor=#46495D;" parent="8CoznZ1QwLFMuTIEQVtO-1" vertex="1">
          <mxGeometry y="120" width="176" height="30" as="geometry" />
        </mxCell>
        <mxCell id="8CoznZ1QwLFMuTIEQVtO-31" style="edgeStyle=orthogonalEdgeStyle;rounded=0;orthogonalLoop=1;jettySize=auto;html=1;exitX=0.5;exitY=0;exitDx=0;exitDy=0;entryX=0;entryY=0.5;entryDx=0;entryDy=0;labelBackgroundColor=none;strokeColor=#788AA3;fontColor=default;" parent="1" source="8CoznZ1QwLFMuTIEQVtO-5" target="8CoznZ1QwLFMuTIEQVtO-3" edge="1">
          <mxGeometry relative="1" as="geometry" />
        </mxCell>
        <mxCell id="C57k4kmFp7kWhjM5iHyX-2" value="exstends" style="edgeLabel;html=1;align=center;verticalAlign=middle;resizable=0;points=[];labelBackgroundColor=none;fontColor=#46495D;" vertex="1" connectable="0" parent="8CoznZ1QwLFMuTIEQVtO-31">
          <mxGeometry x="-0.4611" y="-2" relative="1" as="geometry">
            <mxPoint as="offset" />
          </mxGeometry>
        </mxCell>
        <mxCell id="8CoznZ1QwLFMuTIEQVtO-5" value="&lt;font style=&quot;font-size: 14px;&quot;&gt;Pets&lt;/font&gt;" style="rounded=0;whiteSpace=wrap;html=1;labelBackgroundColor=none;fillColor=#B2C9AB;strokeColor=#788AA3;fontColor=#46495D;" parent="1" vertex="1">
          <mxGeometry x="129.5" y="270" width="120" height="60" as="geometry" />
        </mxCell>
        <mxCell id="8CoznZ1QwLFMuTIEQVtO-30" style="edgeStyle=orthogonalEdgeStyle;rounded=0;orthogonalLoop=1;jettySize=auto;html=1;entryX=1;entryY=0.5;entryDx=0;entryDy=0;labelBackgroundColor=none;strokeColor=#788AA3;fontColor=default;" parent="1" source="8CoznZ1QwLFMuTIEQVtO-6" target="8CoznZ1QwLFMuTIEQVtO-3" edge="1">
          <mxGeometry relative="1" as="geometry" />
        </mxCell>
        <mxCell id="C57k4kmFp7kWhjM5iHyX-1" value="exstends" style="edgeLabel;html=1;align=center;verticalAlign=middle;resizable=0;points=[];labelBackgroundColor=none;fontColor=#46495D;" vertex="1" connectable="0" parent="8CoznZ1QwLFMuTIEQVtO-30">
          <mxGeometry x="-0.3726" y="-1" relative="1" as="geometry">
            <mxPoint x="-1" y="13" as="offset" />
          </mxGeometry>
        </mxCell>
        <mxCell id="8CoznZ1QwLFMuTIEQVtO-6" value="&lt;font style=&quot;font-size: 14px;&quot;&gt;Pack animals&lt;/font&gt;" style="rounded=0;whiteSpace=wrap;html=1;labelBackgroundColor=none;fillColor=#B2C9AB;strokeColor=#788AA3;fontColor=#46495D;" parent="1" vertex="1">
          <mxGeometry x="582" y="270" width="120" height="60" as="geometry" />
        </mxCell>
        <mxCell id="8CoznZ1QwLFMuTIEQVtO-18" style="edgeStyle=orthogonalEdgeStyle;rounded=0;orthogonalLoop=1;jettySize=auto;html=1;exitX=0.5;exitY=0;exitDx=0;exitDy=0;entryX=0.5;entryY=1;entryDx=0;entryDy=0;labelBackgroundColor=none;strokeColor=#788AA3;fontColor=default;" parent="1" source="8CoznZ1QwLFMuTIEQVtO-12" target="8CoznZ1QwLFMuTIEQVtO-5" edge="1">
          <mxGeometry relative="1" as="geometry">
            <Array as="points">
              <mxPoint x="54" y="360" />
              <mxPoint x="190" y="360" />
            </Array>
          </mxGeometry>
        </mxCell>
        <mxCell id="C57k4kmFp7kWhjM5iHyX-3" value="exstends" style="edgeLabel;html=1;align=center;verticalAlign=middle;resizable=0;points=[];labelBackgroundColor=none;fontColor=#46495D;" vertex="1" connectable="0" parent="8CoznZ1QwLFMuTIEQVtO-18">
          <mxGeometry x="-0.6866" y="-1" relative="1" as="geometry">
            <mxPoint y="-8" as="offset" />
          </mxGeometry>
        </mxCell>
        <mxCell id="8CoznZ1QwLFMuTIEQVtO-12" value="Cat" style="rounded=0;whiteSpace=wrap;html=1;labelBackgroundColor=none;fillColor=#B2C9AB;strokeColor=#788AA3;fontColor=#46495D;" parent="1" vertex="1">
          <mxGeometry x="8.75" y="460" width="90" height="60" as="geometry" />
        </mxCell>
        <mxCell id="8CoznZ1QwLFMuTIEQVtO-35" style="edgeStyle=orthogonalEdgeStyle;rounded=0;orthogonalLoop=1;jettySize=auto;html=1;entryX=0.5;entryY=1;entryDx=0;entryDy=0;labelBackgroundColor=none;strokeColor=#788AA3;fontColor=default;" parent="1" source="8CoznZ1QwLFMuTIEQVtO-13" target="8CoznZ1QwLFMuTIEQVtO-5" edge="1">
          <mxGeometry relative="1" as="geometry" />
        </mxCell>
        <mxCell id="C57k4kmFp7kWhjM5iHyX-4" value="exstends" style="edgeLabel;html=1;align=center;verticalAlign=middle;resizable=0;points=[];labelBackgroundColor=none;fontColor=#46495D;" vertex="1" connectable="0" parent="8CoznZ1QwLFMuTIEQVtO-35">
          <mxGeometry x="-0.2711" y="-1" relative="1" as="geometry">
            <mxPoint as="offset" />
          </mxGeometry>
        </mxCell>
        <mxCell id="8CoznZ1QwLFMuTIEQVtO-13" value="Dog" style="rounded=0;whiteSpace=wrap;html=1;labelBackgroundColor=none;fillColor=#B2C9AB;strokeColor=#788AA3;fontColor=#46495D;" parent="1" vertex="1">
          <mxGeometry x="143.75" y="460" width="90" height="60" as="geometry" />
        </mxCell>
        <mxCell id="8CoznZ1QwLFMuTIEQVtO-36" style="edgeStyle=orthogonalEdgeStyle;rounded=0;orthogonalLoop=1;jettySize=auto;html=1;entryX=0.5;entryY=1;entryDx=0;entryDy=0;labelBackgroundColor=none;strokeColor=#788AA3;fontColor=default;" parent="1" source="8CoznZ1QwLFMuTIEQVtO-14" target="8CoznZ1QwLFMuTIEQVtO-5" edge="1">
          <mxGeometry relative="1" as="geometry">
            <Array as="points">
              <mxPoint x="334" y="360" />
              <mxPoint x="190" y="360" />
            </Array>
          </mxGeometry>
        </mxCell>
        <mxCell id="C57k4kmFp7kWhjM5iHyX-5" value="exstends" style="edgeLabel;html=1;align=center;verticalAlign=middle;resizable=0;points=[];labelBackgroundColor=none;fontColor=#46495D;" vertex="1" connectable="0" parent="8CoznZ1QwLFMuTIEQVtO-36">
          <mxGeometry x="-0.6454" y="-2" relative="1" as="geometry">
            <mxPoint x="-2" as="offset" />
          </mxGeometry>
        </mxCell>
        <mxCell id="8CoznZ1QwLFMuTIEQVtO-14" value="Hamster" style="rounded=0;whiteSpace=wrap;html=1;labelBackgroundColor=none;fillColor=#B2C9AB;strokeColor=#788AA3;fontColor=#46495D;" parent="1" vertex="1">
          <mxGeometry x="288.75" y="460" width="90" height="60" as="geometry" />
        </mxCell>
        <mxCell id="8CoznZ1QwLFMuTIEQVtO-32" style="edgeStyle=orthogonalEdgeStyle;rounded=0;orthogonalLoop=1;jettySize=auto;html=1;entryX=0.5;entryY=1;entryDx=0;entryDy=0;labelBackgroundColor=none;strokeColor=#788AA3;fontColor=default;" parent="1" source="8CoznZ1QwLFMuTIEQVtO-15" target="8CoznZ1QwLFMuTIEQVtO-6" edge="1">
          <mxGeometry relative="1" as="geometry">
            <Array as="points">
              <mxPoint x="502" y="360" />
              <mxPoint x="642" y="360" />
            </Array>
          </mxGeometry>
        </mxCell>
        <mxCell id="C57k4kmFp7kWhjM5iHyX-6" value="exstends" style="edgeLabel;html=1;align=center;verticalAlign=middle;resizable=0;points=[];labelBackgroundColor=none;fontColor=#46495D;" vertex="1" connectable="0" parent="8CoznZ1QwLFMuTIEQVtO-32">
          <mxGeometry x="-0.6407" y="-2" relative="1" as="geometry">
            <mxPoint as="offset" />
          </mxGeometry>
        </mxCell>
        <mxCell id="8CoznZ1QwLFMuTIEQVtO-15" value="Horse" style="rounded=0;whiteSpace=wrap;html=1;labelBackgroundColor=none;fillColor=#B2C9AB;strokeColor=#788AA3;fontColor=#46495D;" parent="1" vertex="1">
          <mxGeometry x="456.25" y="460" width="90" height="60" as="geometry" />
        </mxCell>
        <mxCell id="8CoznZ1QwLFMuTIEQVtO-33" style="edgeStyle=orthogonalEdgeStyle;rounded=0;orthogonalLoop=1;jettySize=auto;html=1;labelBackgroundColor=none;strokeColor=#788AA3;fontColor=default;" parent="1" source="8CoznZ1QwLFMuTIEQVtO-16" edge="1">
          <mxGeometry relative="1" as="geometry">
            <mxPoint x="642" y="330" as="targetPoint" />
          </mxGeometry>
        </mxCell>
        <mxCell id="C57k4kmFp7kWhjM5iHyX-8" value="exstends" style="edgeLabel;html=1;align=center;verticalAlign=middle;resizable=0;points=[];labelBackgroundColor=none;fontColor=#46495D;" vertex="1" connectable="0" parent="8CoznZ1QwLFMuTIEQVtO-33">
          <mxGeometry x="-0.2393" y="-2" relative="1" as="geometry">
            <mxPoint y="1" as="offset" />
          </mxGeometry>
        </mxCell>
        <mxCell id="8CoznZ1QwLFMuTIEQVtO-16" value="Donkey" style="rounded=0;whiteSpace=wrap;html=1;labelBackgroundColor=none;fillColor=#B2C9AB;strokeColor=#788AA3;fontColor=#46495D;" parent="1" vertex="1">
          <mxGeometry x="597" y="460" width="90" height="60" as="geometry" />
        </mxCell>
        <mxCell id="8CoznZ1QwLFMuTIEQVtO-34" style="edgeStyle=orthogonalEdgeStyle;rounded=0;orthogonalLoop=1;jettySize=auto;html=1;entryX=0.5;entryY=1;entryDx=0;entryDy=0;labelBackgroundColor=none;strokeColor=#788AA3;fontColor=default;" parent="1" source="8CoznZ1QwLFMuTIEQVtO-17" target="8CoznZ1QwLFMuTIEQVtO-6" edge="1">
          <mxGeometry relative="1" as="geometry">
            <Array as="points">
              <mxPoint x="782" y="360" />
              <mxPoint x="642" y="360" />
            </Array>
          </mxGeometry>
        </mxCell>
        <mxCell id="C57k4kmFp7kWhjM5iHyX-9" value="exstends" style="edgeLabel;html=1;align=center;verticalAlign=middle;resizable=0;points=[];labelBackgroundColor=none;fontColor=#46495D;" vertex="1" connectable="0" parent="8CoznZ1QwLFMuTIEQVtO-34">
          <mxGeometry x="-0.6249" y="-2" relative="1" as="geometry">
            <mxPoint as="offset" />
          </mxGeometry>
        </mxCell>
        <mxCell id="8CoznZ1QwLFMuTIEQVtO-17" value="Camel" style="rounded=0;whiteSpace=wrap;html=1;labelBackgroundColor=none;fillColor=#B2C9AB;strokeColor=#788AA3;fontColor=#46495D;" parent="1" vertex="1">
          <mxGeometry x="729.25" y="460" width="90" height="60" as="geometry" />
        </mxCell>
      </root>
    </mxGraphModel>
  </diagram>
</mxfile>
